<?xml version="1.0" encoding="UTF-8"?>
<svg version="1.1" xmlns="http://www.w3.org/2000/svg" width="500" height="500">
<path d="M0 0 C165 0 330 0 500 0 C500 165 500 330 500 500 C335 500 170 500 0 500 C0 335 0 170 0 0 Z " fill="#FFFEFE" transform="translate(0,0)"/>
<path d="M0 0 C17.49 0 34.98 0 53 0 C53 32.01 53 64.02 53 97 C79.73 97 106.46 97 134 97 C134 64.99 134 32.98 134 0 C152.48 0 170.96 0 190 0 C190 80.19 190 160.38 190 243 C171.19 243 152.38 243 133 243 C133 210.66 133 178.32 133 145 C106.6 145 80.2 145 53 145 C53 177.34 53 209.68 53 243 C35.51 243 18.02 243 0 243 C0 162.81 0 82.62 0 0 Z " fill="#FF3131" transform="translate(159,131)"/>
<path d="M0 0 C4.2141004 2.73822321 7.71171621 5.28373743 10.30859375 9.640625 C10.70433594 10.28902344 11.10007812 10.93742187 11.5078125 11.60546875 C15.75358863 19.60540482 15.92967651 28.94833489 13.93359375 37.7265625 C13.01347723 40.21854474 11.96545469 42.41430795 10.62109375 44.703125 C10.255 45.33476562 9.88890625 45.96640625 9.51171875 46.6171875 C5.1381309 52.74560999 -2.3087916 56.49689973 -9.37890625 58.703125 C-18.9377925 60.20814113 -27.21097984 58.64271872 -35.3359375 53.453125 C-41.09524103 49.03640421 -45.09857896 42.54410688 -47.37890625 35.703125 C-47.55451432 32.79263719 -47.65609494 29.92763131 -47.69140625 27.015625 C-47.72041016 26.23767578 -47.74941406 25.45972656 -47.77929688 24.65820312 C-47.86884518 16.39909371 -44.54728363 10.34958786 -39.08203125 4.3046875 C-27.94271844 -6.17035437 -13.17315164 -7.23518454 0 0 Z " fill="#FF5858" transform="translate(418.37890625,319.296875)"/>
</svg>
